<svg width="20" height="20" viewBox="0 0 20 20" fill="none"
  xmlns="http://www.w3.org/2000/svg">
  <path fill-rule="evenodd" clip-rule="evenodd" d="M4.1508 16.6667L4.16247 16.6691C5.66318 17.5923 7.87369 18 10.5401 18C15.6386 18 18.06 15.1326 17.9989 12.2963L17.9988 12.2965C17.9915 11.9837 17.9544 11.6722 17.8881 11.3656C17.2134 8.26284 15.2593 6.74436 15.2593 6.74436L14.5846 2L11.0124 4.78378C11.0124 4.78378 3.59703 3.64521 2.11395 11.4887C1.68748 13.9558 2.47804 15.6332 4.1508 16.6667ZM11.4852 7.4169C11.672 7.32541 11.8307 7.24766 11.9596 7.21389C15.1957 6.3704 16.4547 9.40864 15.6005 11.4743C14.7463 13.5401 11.9596 12.865 11.4657 12.5281C10.9717 12.1912 9.80313 11.7276 8.90437 12.3178C8.0056 12.908 4.14062 13.6679 4.14062 10.5042C4.14062 7.34053 6.83694 6.6667 8.49952 7.55201C9.79771 8.24327 10.8196 7.74284 11.4852 7.4169Z" fill="#ED1C24"/>
  <path d="M6.59385 10.9092C7.06421 10.9092 7.44551 10.3898 7.44551 9.74914C7.44551 9.10844 7.06421 8.58905 6.59385 8.58905C6.12349 8.58905 5.74219 9.10844 5.74219 9.74914C5.74219 10.3898 6.12349 10.9092 6.59385 10.9092Z" fill="#ED1C24"/>
  <path d="M13.295 10.9092C13.7654 10.9092 14.1467 10.3898 14.1467 9.74914C14.1467 9.10844 13.7654 8.58905 13.295 8.58905C12.8247 8.58905 12.4434 9.10844 12.4434 9.74914C12.4434 10.3898 12.8247 10.9092 13.295 10.9092Z" fill="#ED1C24"/>
</svg>
